<svg width="160" height="62" viewBox="0 0 160 62" fill="none" xmlns="http://www.w3.org/2000/svg">
<path d="M154.843 7.47718V6.35889V5.61337C154.843 4.90173 154.927 4.19009 155.011 3.58011C155.13 2.81764 155.501 2.39405 156.245 2.22461C156.65 2.13989 159.269 1.97045 159.269 1.97045V0.157471H145.076V1.97045C145.076 1.97045 147.172 2.08906 147.594 2.13989C147.881 2.17378 148.152 2.20767 148.439 2.22461C149.368 2.29239 149.993 2.78376 150.247 3.68178C150.449 4.41036 150.5 5.18977 150.534 5.85058C150.939 14.5766 150.855 29.6905 150.855 29.6905L124.852 0.208302H118.921C118.921 0.208302 118.786 15.4577 118.786 16.2371C118.786 16.9826 118.786 17.7112 118.786 18.4567C118.769 20.6764 118.786 22.913 118.786 25.1326C118.803 28.0808 118.82 31.0121 118.752 33.9603C118.718 35.4683 118.837 37.061 118.532 38.5351C118.465 38.8909 118.347 39.2468 118.11 39.5179C117.857 39.8228 117.485 40.0092 117.096 40.0939C116.285 40.2803 115.373 40.2125 114.545 40.2125V42.0255H127.825V40.2125H126.761C126.136 40.1787 125.528 40.0939 125.021 39.9923C124.294 39.8567 123.196 39.3823 123.196 37.5693C123.196 34.7058 123.196 31.8423 123.213 28.9788C123.23 26.0645 123.23 23.1502 123.247 20.2358C123.247 17.6773 123.263 15.1358 123.263 12.5773L148.506 42.1103H154.876C154.859 42.1103 154.809 11.2218 154.843 7.47718Z" fill="black"/>
<path d="M72.1518 41.2632C72.1518 41.1785 72.1518 41.1107 72.1518 41.0768V40.2635H70.817L69.5835 40.1788C69.026 40.1449 68.6204 40.0602 68.2487 39.9246C67.7925 39.7552 67.556 39.3994 67.3701 38.62C67.0829 37.4 67.0491 36.18 66.9984 34.8754L66.9815 34.4857C66.9308 33.1979 66.9308 31.8933 66.9308 30.6055V29.3348C66.9139 25.2513 66.9139 21.1679 66.9139 17.0844V10.5102C66.9139 8.5617 66.9139 6.664 67.0322 4.7663C67.066 4.10549 67.1674 3.58023 67.3532 3.08887C67.5222 2.64833 67.8094 2.37723 68.2318 2.24168C68.7218 2.08918 69.2625 2.00446 69.8539 1.98752C69.8708 1.98752 69.8708 1.98752 69.8877 1.98752H70.7494V1.32671C70.7663 1.27588 70.7832 1.22505 70.7832 1.20811C70.8001 1.0895 70.7832 0.970894 70.7494 0.852287V0.157593H56.0834V1.98752H57.5196C57.5872 1.98752 57.6717 1.98752 57.773 1.98752C58.4151 2.02141 59.091 2.07224 59.733 2.25862C60.5102 2.47889 60.9326 2.95332 61.0678 3.78356C61.2537 4.8849 61.2537 6.03708 61.2706 7.13843C61.3044 9.69694 61.2875 22.2523 61.2875 23.1672H38.8661C38.8661 23.1672 38.8999 17.3216 38.8661 17.3216C38.8661 17.3047 38.8661 9.83249 38.8661 7.44341C38.8661 6.59623 38.883 5.74904 38.9337 4.90185C38.9675 4.24104 39.0689 3.71578 39.2209 3.22442C39.4237 2.5975 39.8292 2.27556 40.522 2.1739L40.8937 2.10613C41.1978 2.05529 41.5019 2.00446 41.8061 2.00446H41.823H42.955V0.157593H28.2891V1.98752H29.4042C29.4211 1.98752 29.4211 1.98752 29.4211 1.98752C29.4887 1.98752 29.5563 1.98752 29.7421 1.98752C30.3335 2.02141 31.0263 2.07224 31.6514 2.25862C32.4455 2.47889 32.8342 2.93637 32.9693 3.71578C33.1552 4.93574 33.189 6.18957 33.189 7.24009C33.2059 14.9495 33.0876 35.7734 33.02 36.5359C32.9355 37.6711 32.7835 38.5183 32.5469 39.2977C32.3949 39.806 32.1076 40.0432 31.5669 40.1279C31.2121 40.1788 30.8573 40.2127 30.4856 40.2466H28.796V42.0765H44.0533V40.2466H42.7354C42.1271 40.1957 41.5357 40.1449 40.9275 40.0941C39.9813 40.0093 39.4913 39.5688 39.2716 38.5183C38.9506 36.9425 38.8999 35.3329 38.8999 33.9265L38.8323 25.9968H61.3044C61.3044 27.6404 61.2368 35.1973 61.1354 36.3495C61.0509 37.4678 60.9326 38.3997 60.6454 39.2977C60.4933 39.7891 60.2061 40.0263 59.6992 40.111C59.3275 40.1788 58.9558 40.2127 58.601 40.2466H56.6748V42.0765H72.1687V41.2632H72.1518Z" fill="black"/>
<path d="M118.667 44.6688C117.315 44.0249 115.981 43.1946 114.713 42.195C113.294 40.8056 106.84 36.8746 99.152 11.3065C97.2427 4.9695 96.3979 0.157471 96.3979 0.157471H93.4748C93.4748 0.157471 91.3797 6.08779 91.3966 6.12168C90.2308 9.12073 89.1325 12.1537 88.0849 15.1019L87.4598 16.864C86.9529 18.2873 86.446 19.7275 85.9391 21.1508C84.4184 25.4545 82.8471 29.9107 81.1744 34.2483C80.6506 35.6038 80.0592 37.1288 79.2989 38.5521C78.8765 39.3654 78.2006 39.8906 77.2882 40.1617C77.0348 40.2464 76.7644 40.2803 76.4772 40.3142H74.1455V42.1102H87.2401V40.3142H84.7564C83.2695 39.8906 84.1481 37.366 84.4691 36.468C85.5167 33.435 87.5949 27.3353 87.5949 27.3353C87.5949 27.3353 94.3365 26.9795 96.8541 27.0472C97.4286 27.0642 98.003 27.0472 98.5944 27.0303C98.7127 27.1997 104.373 38.9079 109.256 43.0252C111.351 44.7874 114.544 46.7867 117.197 47.4475C121.658 48.5319 125.172 48.6675 129.684 47.8881C132.809 47.3459 135.732 46.2445 138.689 45.1601C133.367 46.7359 125.544 47.9389 118.667 44.6688ZM96.9555 24.2515H96.5668C95.9924 24.2515 95.4179 24.2515 94.8434 24.2515H94.1507C94.1169 24.2515 94.1 24.2515 94.0662 24.2515H93.0524C92.2583 24.2515 91.4642 24.2685 90.6701 24.2346H90.4335C89.8759 24.2176 89.3184 24.2007 88.7439 24.2007C89.6056 21.6761 90.3997 19.1175 91.1769 16.6268C91.5149 15.5594 92.6469 11.9334 92.9848 11.2387C93.0186 11.1879 93.12 11.2048 93.1369 11.2556C93.2383 11.459 96.4824 21.3711 97.5468 24.2515C97.3441 24.2515 97.1582 24.2515 96.9555 24.2515Z" fill="black"/>
<path d="M26.8195 34.9768C27.6643 33.3841 27.9853 31.6558 27.7995 29.6904C27.6305 27.9113 27.0054 26.3355 25.8564 24.8783C24.2513 22.8281 22.0886 21.2185 19.9765 19.7783C18.9627 19.0836 17.8814 18.4736 16.8338 17.8636C16.0566 17.3892 15.2625 16.9317 14.4514 16.4065C12.6604 15.2712 10.8019 14.0852 9.26429 12.7297C7.59156 11.2386 6.94951 9.51033 7.35502 7.57875C7.77742 5.59632 9.33188 4.25777 12.1367 3.52918C13.6911 3.10559 15.4145 3.19031 16.9352 3.25808C18.3376 3.32586 19.6893 3.6139 20.9227 4.12222C22.2237 4.64747 23.001 5.29134 23.4065 6.12158C24.0992 7.54486 24.0823 8.69703 24.0823 8.96813C24.0823 9.00202 24.0992 9.01897 24.0992 9.05285V9.40867H26.2112V0.292924H24.0992C23.9978 1.10622 23.3727 0.869012 23.0178 0.801237C20.1286 0.27598 18.3207 0.225149 15.5497 0.309867C14.0966 0.343755 12.8294 0.462361 11.6805 0.665687C8.58844 1.20789 6.0709 2.32618 4.16162 3.98667C1.77925 6.08769 0.883748 8.69703 1.40753 11.9672C1.67787 13.6616 2.62406 15.3559 4.2799 17.1181C5.86814 18.8294 7.91259 20.2188 9.6867 21.3371L11.5115 22.4893C13.2856 23.6076 15.1273 24.7597 16.8338 25.9458C18.0335 26.776 19.1655 27.6232 20.0103 28.6399C24.3527 33.9602 18.0841 39.2297 12.7787 39.2128C10.1091 39.1958 7.52398 38.0606 5.6147 36.2137C3.33371 34.011 2.33683 32.52 2.4551 28.5721V28.2163H0.326172V40.3819H2.4382V39.7889C2.57337 38.9925 2.57337 38.5181 4.38127 39.3483C7.49019 40.7546 10.3626 42.0254 13.3532 42.1271C18.7938 42.2965 24.1837 39.9075 26.8195 34.9768Z" fill="black"/>
<path d="M2.30538 51.7759V61.4162H0.326172V51.7759H2.30538Z" fill="black"/>
<path d="M16.9083 55.0449V61.4162H14.979V51.7759H16.9582L21.1661 58.1639V51.7759H23.0954V61.4162H21.0996L16.9083 55.0449Z" fill="black"/>
<path d="M42.0724 51.7759V53.6439H39.4279V61.4329H37.4487V53.6439H34.8042V51.7759H42.0724Z" fill="black"/>
<path d="M60.7334 59.5982V61.4162H53.8145V51.7759H60.7334V53.5939H55.7937V55.612H60.5338V57.43H55.7937V59.5816H60.7334V59.5982Z" fill="black"/>
<path d="M81.0249 61.4162H78.7296L76.9334 57.7636H75.0373V61.4162H73.0581V51.7759H77.4157C78.4303 51.7759 79.2286 52.0594 79.7775 52.6098C80.3429 53.1602 80.6091 53.8941 80.6091 54.7947C80.6091 55.4452 80.4594 56.0123 80.1766 56.496C79.8772 56.9797 79.4614 57.3299 78.9126 57.5634L81.0249 61.4162ZM78.3471 55.6454C78.5633 55.4452 78.6631 55.1617 78.6631 54.7947C78.6631 54.4278 78.5633 54.1443 78.3471 53.9274C78.1309 53.7106 77.8315 53.5939 77.4323 53.5939H75.054V55.9456H77.4323C77.8315 55.9456 78.1475 55.8455 78.3471 55.6454Z" fill="black"/>
<path d="M94.8127 51.7759V61.4162H92.8335V51.7759H94.8127Z" fill="black"/>
<path d="M115.636 52.9935C116.568 53.9442 117.05 55.1451 117.05 56.5961C117.05 58.0472 116.584 59.2481 115.636 60.1987C114.688 61.1494 113.507 61.6164 112.044 61.6164C110.58 61.6164 109.399 61.1328 108.451 60.1987C107.52 59.2481 107.038 58.0472 107.038 56.5961C107.038 55.1451 107.503 53.9442 108.451 52.9935C109.383 52.0428 110.58 51.5758 112.044 51.5758C113.507 51.5758 114.688 52.0428 115.636 52.9935ZM114.139 58.8644C114.688 58.2974 114.954 57.5301 114.954 56.5961C114.954 55.6621 114.688 54.8949 114.139 54.3278C113.591 53.7607 112.892 53.4605 112.044 53.4605C111.196 53.4605 110.48 53.744 109.948 54.3278C109.399 54.8949 109.133 55.6621 109.133 56.5961C109.133 57.5301 109.399 58.2974 109.948 58.8644C110.497 59.4315 111.196 59.7317 112.044 59.7317C112.892 59.7317 113.607 59.4482 114.139 58.8644Z" fill="black"/>
<path d="M137.225 61.4162H134.929L133.133 57.7636H131.237V61.4162H129.258V51.7759H133.615C134.63 51.7759 135.428 52.0594 135.977 52.6098C136.543 53.1602 136.809 53.8941 136.809 54.7947C136.809 55.4452 136.659 56.0123 136.376 56.496C136.077 56.9797 135.661 57.3299 135.112 57.5634L137.225 61.4162ZM134.547 55.6454C134.763 55.4452 134.863 55.1617 134.863 54.7947C134.863 54.4278 134.763 54.1443 134.547 53.9274C134.331 53.7106 134.031 53.5939 133.632 53.5939H131.254V55.9456H133.632C134.031 55.9456 134.347 55.8455 134.547 55.6454Z" fill="black"/>
<path d="M152.326 59.8484C152.859 59.8484 153.274 59.7483 153.574 59.5649C153.873 59.3647 154.023 59.0979 154.023 58.7476C154.023 58.4974 153.923 58.2806 153.74 58.1138C153.557 57.947 153.308 57.8303 153.008 57.7469C152.709 57.6635 152.376 57.5634 152.01 57.4633C151.644 57.3633 151.279 57.2632 150.913 57.1631C150.547 57.0631 150.214 56.9129 149.898 56.7128C149.599 56.5127 149.349 56.2291 149.166 55.8789C148.983 55.5119 148.884 55.0783 148.884 54.5612C148.884 53.7273 149.2 53.0101 149.832 52.443C150.464 51.8759 151.312 51.5924 152.393 51.5924C153.474 51.5924 154.339 51.8926 154.971 52.5097C155.603 53.1269 155.936 53.8941 155.969 54.8114H154.023C154.006 54.3778 153.856 54.0275 153.557 53.7607C153.258 53.4938 152.859 53.3604 152.36 53.3604C151.894 53.3604 151.528 53.4604 151.245 53.6606C150.963 53.8607 150.829 54.1109 150.829 54.4278C150.829 54.678 150.929 54.8948 151.112 55.0449C151.312 55.2117 151.561 55.3285 151.861 55.4119C152.16 55.4952 152.509 55.5953 152.875 55.6954C153.241 55.7955 153.607 55.8955 153.99 56.0123C154.372 56.1124 154.705 56.2625 155.004 56.4626C155.303 56.6628 155.553 56.9463 155.736 57.3299C155.919 57.7135 156.019 58.1639 156.019 58.6809C156.019 59.5482 155.669 60.2654 154.971 60.7991C154.272 61.3495 153.358 61.6164 152.21 61.6164C151.561 61.6164 150.996 61.5163 150.513 61.3328C150.031 61.1494 149.649 60.8992 149.366 60.5823C149.083 60.2654 148.884 59.9151 148.734 59.5482C148.584 59.1813 148.518 58.781 148.501 58.364H150.447C150.48 58.781 150.647 59.1479 150.963 59.4148C151.279 59.6983 151.728 59.8484 152.326 59.8484Z" fill="black"/>
</svg>
